<svg width="36" height="36" viewBox="0 0 36 36" fill="none" xmlns="http://www.w3.org/2000/svg">
<path d="M32.9442 30.843C36.3383 26.235 35.9965 20.3175 35.9857 20.25V2.25C35.9857 1.65326 35.7962 1.08097 35.4589 0.65901C35.1216 0.237053 34.6641 0 34.1871 0H23.3951C21.4112 0 19.7978 2.01825 19.7978 4.5V20.25C19.7978 20.8467 19.9873 21.419 20.3246 21.841C20.6619 22.2629 21.1194 22.5 21.5965 22.5H27.1327C27.0947 23.6124 26.829 24.6939 26.3611 25.641C25.4474 27.4432 23.7261 28.674 21.2421 29.295L19.7978 29.655V36H21.5965C26.6021 36 30.4207 34.2653 32.9442 30.843ZM13.1464 30.843C16.5422 26.235 16.1987 20.3175 16.1879 20.25V2.25C16.1879 1.65326 15.9984 1.08097 15.6611 0.65901C15.3238 0.237053 14.8663 0 14.3892 0H3.59731C1.61339 0 0 2.01825 0 4.5V20.25C0 20.8467 0.189501 21.419 0.526814 21.841C0.864128 22.2629 1.32162 22.5 1.79866 22.5H7.33492C7.29692 23.6124 7.03123 24.6939 6.5633 25.641C5.64958 27.4432 3.92827 28.674 1.44432 29.295L0 29.655V36H1.79866C6.80432 36 10.6229 34.2653 13.1464 30.843V30.843Z" fill="#FFEBB8"/>
</svg>
