<svg width="674" height="353" viewBox="0 0 674 353" fill="none" xmlns="http://www.w3.org/2000/svg">
<g clip-path="url(#clip0)">
<path d="M674 209.044C674 179.73 649.749 110.17 619.833 110.17C589.918 110.17 565.667 179.73 565.667 209.044C565.677 223.124 571.389 236.623 581.546 246.576C591.703 256.528 605.474 262.119 619.834 262.119C634.193 262.119 647.964 256.528 658.121 246.576C668.278 236.623 673.99 223.124 674 209.044Z" fill="#FF4D6D"/>
<path d="M619.833 326.658C619.669 326.658 619.512 326.594 619.396 326.48C619.279 326.366 619.214 326.212 619.214 326.051V202.062C619.214 201.901 619.279 201.747 619.396 201.633C619.512 201.519 619.669 201.455 619.833 201.455C619.998 201.455 620.155 201.519 620.271 201.633C620.388 201.747 620.453 201.901 620.453 202.062V326.051C620.453 326.212 620.388 326.366 620.271 326.48C620.155 326.594 619.998 326.658 619.833 326.658Z" fill="#CCCCCC"/>
<path d="M619.834 225.228C619.745 225.228 619.657 225.21 619.576 225.173C619.496 225.137 619.424 225.084 619.365 225.019L588.213 189.791C588.106 189.67 588.052 189.511 588.064 189.35C588.076 189.19 588.152 189.041 588.276 188.935C588.4 188.83 588.562 188.777 588.725 188.788C588.889 188.799 589.041 188.874 589.149 188.995L620.302 224.223C620.379 224.311 620.43 224.419 620.447 224.534C620.463 224.649 620.446 224.767 620.397 224.873C620.348 224.979 620.268 225.068 620.169 225.131C620.069 225.194 619.953 225.228 619.834 225.228Z" fill="#CCCCCC"/>
<path d="M619.834 245.558C619.711 245.558 619.591 245.522 619.489 245.456C619.388 245.389 619.308 245.294 619.261 245.183C619.214 245.072 619.202 244.95 619.226 244.832C619.25 244.715 619.309 244.606 619.396 244.521L637.097 227.164C637.213 227.051 637.371 226.987 637.534 226.987C637.698 226.988 637.856 227.052 637.971 227.165C638.087 227.279 638.153 227.433 638.153 227.594C638.153 227.754 638.088 227.909 637.973 228.023L620.271 245.38C620.214 245.437 620.146 245.482 620.071 245.512C619.995 245.543 619.915 245.558 619.834 245.558Z" fill="#CCCCCC"/>
<path d="M76.7159 260.427C76.7159 243.92 63.0595 204.749 46.2136 204.749C29.3676 204.749 15.7113 243.92 15.7113 260.427C15.7158 268.357 18.9314 275.96 24.6512 281.565C30.371 287.171 38.1268 290.32 46.2136 290.32C54.3004 290.32 62.0562 287.171 67.776 281.565C73.4958 275.96 76.7114 268.357 76.7159 260.427H76.7159Z" fill="#FF4D6D"/>
<path d="M46.2136 326.658C46.121 326.658 46.0323 326.622 45.9669 326.558C45.9015 326.494 45.8648 326.407 45.8647 326.316V256.496C45.8647 256.405 45.9015 256.318 45.9669 256.254C46.0323 256.19 46.121 256.154 46.2136 256.154C46.3061 256.154 46.3948 256.19 46.4602 256.254C46.5256 256.318 46.5624 256.405 46.5624 256.496V326.316C46.5624 326.407 46.5256 326.494 46.4602 326.558C46.3948 326.622 46.3061 326.658 46.2136 326.658Z" fill="#CCCCCC"/>
<path d="M46.2138 269.541C46.1638 269.541 46.1143 269.53 46.0688 269.51C46.0233 269.49 45.9828 269.46 45.95 269.423L28.4075 249.586C28.3473 249.517 28.3173 249.428 28.3241 249.338C28.3308 249.247 28.3737 249.163 28.4434 249.104C28.5131 249.045 28.6039 249.015 28.696 249.021C28.7881 249.028 28.8739 249.069 28.9346 249.137L46.4772 268.975C46.521 269.024 46.5493 269.085 46.5589 269.15C46.5684 269.215 46.5587 269.281 46.5309 269.341C46.5032 269.4 46.4585 269.451 46.4023 269.486C46.3461 269.522 46.2806 269.541 46.2138 269.541V269.541Z" fill="#CCCCCC"/>
<path d="M46.2136 280.989C46.1446 280.989 46.0772 280.969 46.0198 280.931C45.9625 280.894 45.9178 280.84 45.8914 280.778C45.865 280.715 45.8581 280.647 45.8716 280.58C45.885 280.514 45.9182 280.453 45.967 280.405L55.935 270.631C56.0004 270.567 56.0891 270.531 56.1816 270.531C56.2741 270.531 56.3628 270.567 56.4282 270.631C56.4936 270.695 56.5304 270.782 56.5304 270.873C56.5304 270.963 56.4936 271.05 56.4282 271.115L46.4602 280.889C46.4279 280.921 46.3894 280.946 46.3471 280.963C46.3048 280.98 46.2594 280.989 46.2136 280.989Z" fill="#CCCCCC"/>
<path d="M13.1766 326.205C13.1766 322.894 14.5182 319.718 16.9063 317.376C19.2944 315.034 22.5333 313.719 25.9106 313.719C29.2878 313.719 32.5267 315.034 34.9148 317.376C37.3029 319.718 38.6445 322.894 38.6445 326.205" fill="#F2F2F2"/>
<path d="M25.9106 326.205C25.8193 326.205 25.7317 326.169 25.6672 326.106C25.6027 326.043 25.5664 325.957 25.5664 325.867V319.287C25.5664 319.197 25.6026 319.111 25.6672 319.048C25.7317 318.985 25.8193 318.949 25.9106 318.949C26.0018 318.949 26.0894 318.985 26.1539 319.048C26.2185 319.111 26.2547 319.197 26.2547 319.287V325.867C26.2547 325.957 26.2185 326.043 26.1539 326.106C26.0894 326.169 26.0018 326.205 25.9106 326.205Z" fill="#CCCCCC"/>
<path d="M25.9104 323.944C25.8282 323.944 25.7486 323.915 25.6864 323.862L21.5565 320.387C21.522 320.358 21.4937 320.323 21.4732 320.283C21.4526 320.244 21.4402 320.2 21.4367 320.156C21.4332 320.112 21.4386 320.067 21.4527 320.025C21.4668 319.983 21.4892 319.944 21.5187 319.91C21.5482 319.876 21.5842 319.849 21.6246 319.829C21.665 319.809 21.709 319.797 21.7542 319.793C21.7994 319.79 21.8447 319.796 21.8877 319.81C21.9307 319.823 21.9705 319.846 22.0048 319.875L26.1347 323.35C26.1881 323.395 26.2261 323.455 26.2437 323.522C26.2613 323.588 26.2577 323.659 26.2333 323.724C26.2088 323.788 26.1648 323.844 26.1071 323.883C26.0493 323.923 25.9807 323.944 25.9104 323.944H25.9104Z" fill="#CCCCCC"/>
<path d="M52.4109 326.205C52.4109 322.894 53.7525 319.718 56.1406 317.376C58.5286 315.034 61.7676 313.719 65.1448 313.719C68.5221 313.719 71.761 315.034 74.1491 317.376C76.5371 319.718 77.8788 322.894 77.8788 326.205" fill="#F2F2F2"/>
<path d="M65.1448 326.205C65.0535 326.205 64.966 326.169 64.9014 326.106C64.8369 326.043 64.8007 325.957 64.8007 325.867V319.287C64.8007 319.197 64.8369 319.111 64.9014 319.048C64.966 318.985 65.0535 318.949 65.1448 318.949C65.2361 318.949 65.3236 318.985 65.3882 319.048C65.4527 319.111 65.489 319.197 65.489 319.287V325.867C65.489 325.957 65.4527 326.043 65.3882 326.106C65.3236 326.169 65.2361 326.205 65.1448 326.205Z" fill="#CCCCCC"/>
<path d="M65.1447 323.944C65.0625 323.944 64.983 323.915 64.9207 323.862L60.7908 320.387C60.7215 320.328 60.6787 320.245 60.6718 320.156C60.6648 320.067 60.6944 319.979 60.7538 319.911C60.8133 319.843 60.8978 319.801 60.9888 319.794C61.0798 319.787 61.1699 319.816 61.2391 319.874L65.369 323.35C65.4224 323.395 65.4604 323.455 65.4781 323.522C65.4957 323.588 65.492 323.659 65.4676 323.723C65.4431 323.788 65.3991 323.844 65.3414 323.883C65.2836 323.923 65.215 323.944 65.1447 323.944Z" fill="#CCCCCC"/>
<path d="M288.55 276.592C210.781 276.592 147.511 214.553 147.511 138.296C147.511 62.0395 210.781 0 288.55 0C366.319 0 429.588 62.0395 429.588 138.296C429.588 214.553 366.319 276.592 288.55 276.592ZM288.55 1.85632C211.824 1.85632 149.404 63.0629 149.404 138.296C149.404 213.529 211.824 274.736 288.55 274.736C365.275 274.736 427.695 213.529 427.695 138.296C427.695 63.0629 365.275 1.85632 288.55 1.85632Z" fill="#CCCCCC"/>
<path d="M288.549 128.086C288.298 128.086 288.058 127.989 287.88 127.814C287.703 127.64 287.603 127.404 287.603 127.158V0.928162C287.603 0.681998 287.703 0.44593 287.88 0.271866C288.058 0.0978016 288.298 0 288.549 0C288.801 0 289.041 0.0978016 289.219 0.271866C289.396 0.44593 289.496 0.681998 289.496 0.928162V127.158C289.496 127.404 289.396 127.64 289.219 127.814C289.041 127.989 288.801 128.086 288.549 128.086Z" fill="#CCCCCC"/>
<path d="M428.641 139.224H299.908C299.657 139.224 299.417 139.127 299.239 138.953C299.061 138.779 298.962 138.542 298.962 138.296C298.962 138.05 299.061 137.814 299.239 137.64C299.417 137.466 299.657 137.368 299.908 137.368H428.641C428.893 137.368 429.133 137.466 429.311 137.64C429.488 137.814 429.588 138.05 429.588 138.296C429.588 138.542 429.488 138.779 429.311 138.953C429.133 139.127 428.893 139.224 428.641 139.224Z" fill="#CCCCCC"/>
<path d="M277.191 139.224H148.518C148.267 139.224 148.027 139.127 147.849 138.953C147.672 138.779 147.572 138.542 147.572 138.296C147.572 138.05 147.672 137.814 147.849 137.64C148.027 137.466 148.267 137.368 148.518 137.368H277.191C277.442 137.368 277.682 137.466 277.86 137.64C278.037 137.814 278.137 138.05 278.137 138.296C278.137 138.542 278.037 138.779 277.86 138.953C277.682 139.127 277.442 139.224 277.191 139.224Z" fill="#CCCCCC"/>
<path d="M288.549 276.592C288.298 276.592 288.058 276.494 287.88 276.32C287.703 276.146 287.603 275.91 287.603 275.664V149.434C287.603 149.188 287.703 148.952 287.88 148.778C288.058 148.604 288.298 148.506 288.549 148.506C288.801 148.506 289.041 148.604 289.219 148.778C289.396 148.952 289.496 149.188 289.496 149.434V275.664C289.496 275.91 289.396 276.146 289.219 276.32C289.041 276.494 288.801 276.592 288.549 276.592Z" fill="#CCCCCC"/>
<path d="M296.895 131.682C296.708 131.682 296.525 131.628 296.369 131.526C296.214 131.424 296.093 131.279 296.021 131.109C295.949 130.94 295.931 130.753 295.967 130.573C296.004 130.393 296.094 130.228 296.226 130.098L386.854 41.2323C386.941 41.1461 387.046 41.0777 387.161 41.0311C387.275 40.9845 387.399 40.9604 387.523 40.9604C387.647 40.9604 387.77 40.9845 387.885 41.0311C388 41.0777 388.104 41.1461 388.192 41.2323C388.28 41.3184 388.35 41.4208 388.397 41.5334C388.445 41.646 388.469 41.7666 388.469 41.8885C388.469 42.0104 388.445 42.1311 388.397 42.2437C388.35 42.3563 388.28 42.4586 388.192 42.5448L297.564 131.41C297.477 131.497 297.372 131.565 297.258 131.612C297.143 131.658 297.02 131.682 296.895 131.682Z" fill="#CCCCCC"/>
<path d="M280.204 131.682C280.08 131.682 279.956 131.658 279.842 131.611C279.727 131.565 279.622 131.496 279.535 131.41L188.907 42.5443C188.729 42.3702 188.63 42.1342 188.63 41.888C188.63 41.6419 188.729 41.4058 188.907 41.2318C189.084 41.0577 189.325 40.96 189.576 40.96C189.827 40.96 190.068 41.0577 190.245 41.2318L280.873 130.097C281.006 130.227 281.096 130.393 281.132 130.573C281.169 130.753 281.15 130.939 281.078 131.109C281.007 131.278 280.885 131.423 280.73 131.525C280.574 131.627 280.391 131.682 280.204 131.682L280.204 131.682Z" fill="#CCCCCC"/>
<path d="M387.523 235.632C387.399 235.632 387.275 235.608 387.161 235.562C387.046 235.515 386.941 235.446 386.854 235.36L296.226 146.494C296.049 146.32 295.949 146.084 295.949 145.838C295.949 145.592 296.049 145.356 296.226 145.182C296.404 145.008 296.644 144.91 296.895 144.91C297.146 144.91 297.387 145.008 297.565 145.182L388.192 234.048C388.324 234.177 388.415 234.343 388.451 234.523C388.488 234.703 388.469 234.889 388.397 235.059C388.326 235.229 388.204 235.373 388.049 235.475C387.893 235.577 387.71 235.632 387.523 235.632L387.523 235.632Z" fill="#CCCCCC"/>
<path d="M189.576 235.632C189.389 235.632 189.206 235.577 189.05 235.475C188.895 235.373 188.773 235.229 188.702 235.059C188.63 234.889 188.611 234.703 188.648 234.523C188.684 234.343 188.775 234.177 188.907 234.048L279.535 145.182C279.623 145.096 279.727 145.027 279.842 144.981C279.957 144.934 280.08 144.91 280.204 144.91C280.328 144.91 280.451 144.934 280.566 144.981C280.681 145.027 280.785 145.096 280.873 145.182C280.961 145.268 281.031 145.37 281.078 145.483C281.126 145.596 281.15 145.716 281.15 145.838C281.15 145.96 281.126 146.081 281.078 146.193C281.031 146.306 280.961 146.408 280.873 146.494L190.245 235.36C190.158 235.446 190.053 235.515 189.938 235.562C189.824 235.608 189.7 235.632 189.576 235.632Z" fill="#CCCCCC"/>
<path d="M288.549 233.433C269.36 233.433 250.602 227.853 234.646 217.399C218.691 206.946 206.255 192.087 198.912 174.703C191.568 157.32 189.647 138.191 193.391 119.736C197.134 101.281 206.375 84.3297 219.944 71.0246C233.513 57.7195 250.801 48.6586 269.621 44.9877C288.442 41.3169 307.95 43.2009 325.679 50.4016C343.407 57.6022 358.56 69.7961 369.221 85.4412C379.882 101.086 385.573 119.48 385.573 138.296C385.544 163.519 375.312 187.701 357.123 205.536C338.934 223.372 314.273 233.404 288.549 233.433ZM288.549 45.016C269.735 45.016 251.342 50.4868 235.698 60.7366C220.054 70.9864 207.861 85.5547 200.661 102.599C193.461 119.644 191.577 138.4 195.247 156.494C198.918 174.589 207.978 191.21 221.282 204.255C234.587 217.301 251.537 226.185 269.991 229.784C288.444 233.383 307.571 231.536 324.954 224.476C342.337 217.416 357.194 205.46 367.647 190.12C378.1 174.78 383.68 156.745 383.68 138.296C383.651 113.565 373.619 89.8555 355.785 72.3681C337.951 54.8807 313.771 45.044 288.549 45.016Z" fill="#CCCCCC"/>
<path d="M288.55 149.434C294.823 149.434 299.908 144.447 299.908 138.296C299.908 132.145 294.823 127.158 288.55 127.158C282.276 127.158 277.191 132.145 277.191 138.296C277.191 144.447 282.276 149.434 288.55 149.434Z" fill="#3F3D56"/>
<path d="M244.575 326.43L234.595 326.713L283.303 133.938L292.357 136.647L244.575 326.43Z" fill="#3F3D56"/>
<path d="M332.524 326.43L342.504 326.713L293.797 133.938L284.743 136.647L332.524 326.43Z" fill="#3F3D56"/>
<path d="M303.695 28.7729H272.458V45.4799H303.695V28.7729Z" fill="#CCCCCC"/>
<path d="M286.656 32.4858H274.351V45.4801H286.656V32.4858Z" fill="white"/>
<path d="M301.801 32.4858H289.496V45.4801H301.801V32.4858Z" fill="white"/>
<path d="M288.076 63.5791C283.308 63.5738 278.737 61.7141 275.365 58.408C271.993 55.102 270.097 50.6195 270.091 45.944V45.48C270.093 44.3726 270.542 43.311 271.34 42.5279C272.139 41.7449 273.222 41.3045 274.351 41.3032H301.801C302.931 41.3045 304.013 41.7449 304.812 42.5279C305.611 43.311 306.06 44.3726 306.061 45.48V45.944C306.056 50.6195 304.159 55.102 300.787 58.408C297.416 61.7141 292.844 63.5738 288.076 63.5791Z" fill="#CCCCCC"/>
<path d="M302.525 32.9497H273.628C273.225 32.9497 272.828 32.8486 272.475 32.656C272.123 32.4634 271.827 32.1857 271.615 31.8492C271.403 31.5127 271.282 31.1286 271.264 30.7335C271.246 30.3383 271.331 29.9452 271.511 29.5914L277.191 18.4535C277.386 18.0671 277.688 17.7422 278.062 17.5155C278.436 17.2888 278.868 17.1694 279.307 17.1709H296.845C297.285 17.1694 297.716 17.2888 298.091 17.5155C298.465 17.7422 298.766 18.0671 298.962 18.4535L304.641 29.5914C304.822 29.9452 304.907 30.3383 304.889 30.7335C304.871 31.1286 304.75 31.5127 304.538 31.8492C304.326 32.1856 304.029 32.4634 303.677 32.656C303.325 32.8486 302.928 32.9497 302.525 32.9497Z" fill="#2E8CCB"/>
<path d="M387.939 65.8994H356.702V82.6063H387.939V65.8994Z" fill="#CCCCCC"/>
<path d="M370.901 69.6123H358.596V82.6066H370.901V69.6123Z" fill="white"/>
<path d="M386.046 69.6123H373.741V82.6066H386.046V69.6123Z" fill="white"/>
<path d="M372.321 100.706C367.553 100.7 362.981 98.8406 359.61 95.5345C356.238 92.2284 354.341 87.746 354.336 83.0705V82.6064C354.337 81.4991 354.786 80.4374 355.585 79.6544C356.384 78.8714 357.466 78.4309 358.596 78.4297H386.046C387.175 78.4309 388.258 78.8714 389.057 79.6544C389.855 80.4374 390.304 81.4991 390.306 82.6064V83.0705C390.3 87.746 388.404 92.2284 385.032 95.5345C381.66 98.8406 377.089 100.7 372.321 100.706Z" fill="#CCCCCC"/>
<path d="M363.552 55.2256C363.288 55.2247 363.029 55.2964 362.805 55.4324C362.58 55.5684 362.399 55.7634 362.282 55.9952L356.603 67.1331C356.494 67.3454 356.443 67.5812 356.454 67.8183C356.465 68.0554 356.537 68.2859 356.664 68.4878C356.792 68.6896 356.969 68.8563 357.181 68.9719C357.392 69.0874 357.63 69.1481 357.872 69.148H386.769C387.011 69.1481 387.249 69.0874 387.461 68.9719C387.672 68.8563 387.85 68.6896 387.977 68.4878C388.104 68.2859 388.177 68.0554 388.188 67.8183C388.198 67.5812 388.147 67.3454 388.039 67.1331L382.36 55.9952C382.242 55.7634 382.061 55.5684 381.837 55.4324C381.612 55.2964 381.354 55.2247 381.09 55.2256H363.552Z" fill="#2E8CCB"/>
<path d="M421.069 149.434H389.832V166.141H421.069V149.434Z" fill="#CCCCCC"/>
<path d="M404.031 153.146H391.725V166.141H404.031V153.146Z" fill="white"/>
<path d="M419.176 153.146H406.87V166.141H419.176V153.146Z" fill="white"/>
<path d="M405.451 184.24C400.682 184.235 396.111 182.375 392.739 179.069C389.368 175.763 387.471 171.281 387.466 166.605V166.141C387.467 165.034 387.916 163.972 388.715 163.189C389.513 162.406 390.596 161.966 391.725 161.964H419.176C420.305 161.966 421.388 162.406 422.186 163.189C422.985 163.972 423.434 165.034 423.435 166.141V166.605C423.43 171.281 421.533 175.763 418.162 179.069C414.79 182.375 410.219 184.235 405.451 184.24Z" fill="#CCCCCC"/>
<path d="M419.899 153.611H391.002C390.599 153.611 390.202 153.51 389.85 153.317C389.497 153.125 389.201 152.847 388.989 152.51C388.777 152.174 388.656 151.79 388.638 151.395C388.62 150.999 388.705 150.606 388.886 150.253L394.565 139.115C394.76 138.728 395.062 138.403 395.436 138.177C395.81 137.95 396.242 137.831 396.682 137.832H414.22C414.659 137.831 415.091 137.95 415.465 138.177C415.839 138.403 416.141 138.728 416.336 139.115L422.016 150.253C422.196 150.606 422.281 150.999 422.263 151.395C422.245 151.79 422.124 152.174 421.912 152.51C421.7 152.847 421.404 153.125 421.051 153.317C420.699 153.51 420.302 153.611 419.899 153.611Z" fill="#2E8CCB"/>
<path d="M386.046 227.399H354.809V244.106H386.046V227.399Z" fill="#CCCCCC"/>
<path d="M369.008 231.112H356.702V244.107H369.008V231.112Z" fill="white"/>
<path d="M384.153 231.112H371.847V244.107H384.153V231.112Z" fill="white"/>
<path d="M370.428 262.206C365.659 262.2 361.088 260.341 357.716 257.034C354.345 253.728 352.448 249.246 352.443 244.57V244.106C352.444 242.999 352.893 241.937 353.692 241.154C354.49 240.371 355.573 239.931 356.702 239.93H384.153C385.282 239.931 386.365 240.371 387.163 241.154C387.962 241.937 388.411 242.999 388.412 244.106V244.57C388.407 249.246 386.51 253.728 383.139 257.034C379.767 260.341 375.196 262.2 370.428 262.206Z" fill="#CCCCCC"/>
<path d="M384.876 231.576H355.979C355.576 231.576 355.179 231.475 354.827 231.282C354.475 231.09 354.178 230.812 353.966 230.476C353.754 230.139 353.633 229.755 353.615 229.36C353.597 228.965 353.682 228.572 353.863 228.218L359.542 217.08C359.737 216.694 360.039 216.369 360.413 216.142C360.788 215.915 361.219 215.796 361.659 215.797H379.197C379.636 215.796 380.068 215.915 380.442 216.142C380.816 216.369 381.118 216.694 381.313 217.08L386.993 228.218C387.173 228.572 387.258 228.965 387.24 229.36C387.222 229.755 387.101 230.139 386.889 230.476C386.677 230.812 386.381 231.09 386.028 231.282C385.676 231.475 385.279 231.576 384.876 231.576Z" fill="#2E8CCB"/>
<path d="M189.16 82.6064H220.397V65.8995H189.16V82.6064Z" fill="#CCCCCC"/>
<path d="M206.198 82.6064H218.504V69.6122H206.198V82.6064Z" fill="white"/>
<path d="M191.053 82.6064H203.358V69.6122H191.053V82.6064Z" fill="white"/>
<path d="M204.778 100.706C200.01 100.7 195.439 98.8406 192.067 95.5345C188.696 92.2284 186.799 87.746 186.794 83.0705V82.6064C186.795 81.4991 187.244 80.4374 188.043 79.6544C188.841 78.8714 189.924 78.4309 191.053 78.4297H218.504C219.633 78.4309 220.716 78.8714 221.514 79.6544C222.313 80.4374 222.762 81.4991 222.763 82.6064V83.0705C222.758 87.746 220.861 92.2284 217.49 95.5345C214.118 98.8406 209.547 100.7 204.778 100.706Z" fill="#CCCCCC"/>
<path d="M219.227 70.0761H190.33C189.927 70.0762 189.53 69.9751 189.177 69.7825C188.825 69.5899 188.529 69.3121 188.317 68.9757C188.105 68.6392 187.984 68.2551 187.966 67.86C187.948 67.4648 188.033 67.0717 188.213 66.7179L193.893 55.5799C194.088 55.1936 194.39 54.8686 194.764 54.6419C195.138 54.4152 195.57 54.2959 196.009 54.2974H213.547C213.987 54.2959 214.418 54.4152 214.792 54.6419C215.167 54.8686 215.468 55.1936 215.664 55.5799L221.343 66.7179C221.524 67.0717 221.609 67.4648 221.591 67.86C221.573 68.2551 221.452 68.6392 221.24 68.9756C221.028 69.3121 220.731 69.5899 220.379 69.7825C220.027 69.9751 219.63 70.0762 219.227 70.0761Z" fill="#2E8CCB"/>
<path d="M156.03 166.141H187.267V149.434H156.03V166.141Z" fill="#CCCCCC"/>
<path d="M173.068 166.141H185.374V153.147H173.068V166.141Z" fill="white"/>
<path d="M157.923 166.141H170.229V153.147H157.923V166.141Z" fill="white"/>
<path d="M171.648 184.24C166.88 184.235 162.309 182.375 158.937 179.069C155.566 175.763 153.669 171.281 153.664 166.605V166.141C153.665 165.034 154.114 163.972 154.913 163.189C155.711 162.406 156.794 161.966 157.923 161.964H185.374C186.503 161.966 187.586 162.406 188.384 163.189C189.183 163.972 189.632 165.034 189.633 166.141V166.605C189.628 171.281 187.731 175.763 184.36 179.069C180.988 182.375 176.417 184.235 171.648 184.24Z" fill="#CCCCCC"/>
<path d="M186.097 153.611H157.2C156.797 153.611 156.4 153.51 156.048 153.317C155.695 153.125 155.399 152.847 155.187 152.51C154.975 152.174 154.854 151.79 154.836 151.395C154.818 150.999 154.903 150.606 155.083 150.253L160.763 139.115C160.958 138.728 161.26 138.403 161.634 138.177C162.008 137.95 162.44 137.831 162.879 137.832H180.417C180.857 137.831 181.288 137.95 181.663 138.177C182.037 138.403 182.339 138.728 182.534 139.115L188.213 150.253C188.394 150.606 188.479 150.999 188.461 151.395C188.443 151.79 188.322 152.174 188.11 152.51C187.898 152.847 187.601 153.125 187.249 153.317C186.897 153.51 186.5 153.611 186.097 153.611Z" fill="#2E8CCB"/>
<path d="M191.053 244.106H222.29V227.4H191.053V244.106Z" fill="#CCCCCC"/>
<path d="M208.091 244.106H220.397V231.112H208.091V244.106Z" fill="white"/>
<path d="M192.946 244.106H205.252V231.112H192.946V244.106Z" fill="white"/>
<path d="M206.671 262.206C201.903 262.2 197.332 260.341 193.96 257.034C190.589 253.728 188.692 249.246 188.687 244.57V244.106C188.688 242.999 189.137 241.937 189.936 241.154C190.734 240.371 191.817 239.931 192.946 239.93H220.397C221.526 239.931 222.609 240.371 223.407 241.154C224.206 241.937 224.655 242.999 224.656 244.106V244.57C224.651 249.246 222.754 253.728 219.383 257.034C216.011 260.341 211.44 262.2 206.671 262.206Z" fill="#CCCCCC"/>
<path d="M221.12 231.576H192.223C191.82 231.576 191.423 231.475 191.071 231.282C190.718 231.09 190.422 230.812 190.21 230.476C189.998 230.139 189.877 229.755 189.859 229.36C189.841 228.965 189.926 228.572 190.107 228.218L195.786 217.08C195.981 216.694 196.283 216.369 196.657 216.142C197.031 215.915 197.463 215.796 197.903 215.797H215.44C215.88 215.796 216.312 215.915 216.686 216.142C217.06 216.369 217.362 216.694 217.557 217.08L223.236 228.218C223.417 228.572 223.502 228.965 223.484 229.36C223.466 229.755 223.345 230.139 223.133 230.476C222.921 230.812 222.625 231.09 222.272 231.282C221.92 231.475 221.523 231.576 221.12 231.576Z" fill="#2E8CCB"/>
<path d="M303.695 262.67H272.458V279.377H303.695V262.67Z" fill="#CCCCCC"/>
<path d="M286.656 266.382H274.351V279.377H286.656V266.382Z" fill="white"/>
<path d="M301.801 266.382H289.496V279.377H301.801V266.382Z" fill="white"/>
<path d="M274.351 276.128C273.473 276.129 272.631 276.472 272.009 277.081C271.388 277.69 271.039 278.515 271.038 279.376V279.841C271.038 284.272 272.833 288.521 276.028 291.654C279.224 294.787 283.557 296.547 288.076 296.547C292.595 296.547 296.929 294.787 300.124 291.654C303.319 288.521 305.114 284.272 305.114 279.841V279.376C305.113 278.515 304.764 277.69 304.143 277.081C303.522 276.472 302.68 276.129 301.801 276.128H274.351Z" fill="#CCCCCC"/>
<path d="M279.307 251.996C279.043 251.995 278.785 252.067 278.56 252.203C278.336 252.339 278.155 252.534 278.037 252.766L272.358 263.904C272.25 264.116 272.199 264.352 272.209 264.589C272.22 264.826 272.293 265.056 272.42 265.258C272.547 265.46 272.725 265.627 272.936 265.742C273.148 265.858 273.386 265.919 273.628 265.919H302.525C302.767 265.919 303.005 265.858 303.216 265.742C303.427 265.627 303.605 265.46 303.732 265.258C303.86 265.056 303.932 264.826 303.943 264.589C303.954 264.352 303.903 264.116 303.794 263.904L298.115 252.766C297.998 252.534 297.817 252.339 297.592 252.203C297.368 252.067 297.109 251.995 296.845 251.996H279.307Z" fill="#2E8CCB"/>
<path d="M500.778 298.868C501.029 298.868 501.27 298.77 501.447 298.596C501.625 298.422 501.725 298.186 501.725 297.94C501.725 297.694 501.625 297.458 501.447 297.284C501.27 297.11 501.029 297.012 500.778 297.012H491.786V293.299H500.778C501.029 293.299 501.27 293.201 501.447 293.027C501.625 292.853 501.725 292.617 501.725 292.371C501.725 292.125 501.625 291.889 501.447 291.715C501.27 291.541 501.029 291.443 500.778 291.443H424.106C423.855 291.443 423.614 291.541 423.437 291.715C423.259 291.889 423.16 292.125 423.16 292.371C423.16 292.617 423.259 292.853 423.437 293.027C423.614 293.201 423.855 293.299 424.106 293.299H433.099V297.012H424.106C423.855 297.012 423.614 297.11 423.437 297.284C423.259 297.458 423.16 297.694 423.16 297.94C423.16 298.186 423.259 298.422 423.437 298.596C423.614 298.77 423.855 298.868 424.106 298.868H433.099V302.581H424.106C423.855 302.581 423.614 302.679 423.437 302.853C423.259 303.027 423.16 303.263 423.16 303.509C423.16 303.755 423.259 303.991 423.437 304.165C423.614 304.339 423.855 304.437 424.106 304.437H433.099V308.15H425.053C424.551 308.15 424.069 308.345 423.714 308.693C423.359 309.042 423.16 309.514 423.16 310.006C423.16 310.498 423.359 310.971 423.714 311.319C424.069 311.667 424.551 311.862 425.053 311.862H432.712C432.656 312.011 432.627 312.168 432.625 312.326V325.321C432.625 325.69 432.775 326.044 433.041 326.305C433.307 326.566 433.669 326.713 434.045 326.713C434.422 326.713 434.783 326.566 435.049 326.305C435.315 326.044 435.465 325.69 435.465 325.321V312.326C435.463 312.168 435.434 312.011 435.378 311.862H489.506C489.45 312.011 489.421 312.168 489.419 312.326V325.321C489.419 325.69 489.569 326.044 489.835 326.305C490.101 326.566 490.463 326.713 490.839 326.713C491.216 326.713 491.577 326.566 491.843 326.305C492.109 326.044 492.259 325.69 492.259 325.321V312.326C492.257 312.168 492.228 312.011 492.172 311.862H499.832C500.334 311.862 500.815 311.667 501.17 311.319C501.525 310.971 501.725 310.498 501.725 310.006C501.725 309.514 501.525 309.042 501.17 308.693C500.815 308.345 500.334 308.15 499.832 308.15H491.786V304.437H500.778C501.029 304.437 501.27 304.339 501.448 304.165C501.625 303.991 501.725 303.755 501.725 303.509C501.725 303.263 501.625 303.027 501.448 302.853C501.27 302.679 501.029 302.581 500.778 302.581H491.786V298.868H500.778ZM434.992 293.299H489.893V297.012H434.992V293.299ZM489.893 308.15H434.992V304.437H489.893V308.15ZM489.893 302.581H434.992V298.868H489.893V302.581Z" fill="#3F3D56"/>
<path d="M178.945 298.868C179.196 298.868 179.437 298.77 179.615 298.596C179.792 298.422 179.892 298.186 179.892 297.94C179.892 297.694 179.792 297.458 179.615 297.284C179.437 297.11 179.196 297.012 178.945 297.012H169.953V293.299H178.945C179.196 293.299 179.437 293.201 179.615 293.027C179.792 292.853 179.892 292.617 179.892 292.371C179.892 292.125 179.792 291.889 179.615 291.715C179.437 291.541 179.196 291.443 178.945 291.443H102.273C102.022 291.443 101.781 291.541 101.604 291.715C101.426 291.889 101.327 292.125 101.327 292.371C101.327 292.617 101.426 292.853 101.604 293.027C101.781 293.201 102.022 293.299 102.273 293.299H111.266V297.012H102.273C102.022 297.012 101.781 297.11 101.604 297.284C101.426 297.458 101.327 297.694 101.327 297.94C101.327 298.186 101.426 298.422 101.604 298.596C101.781 298.77 102.022 298.868 102.273 298.868H111.266V302.581H102.273C102.022 302.581 101.781 302.679 101.604 302.853C101.426 303.027 101.327 303.263 101.327 303.509C101.327 303.755 101.426 303.991 101.604 304.165C101.781 304.339 102.022 304.437 102.273 304.437H111.266V308.15H103.22C102.718 308.15 102.236 308.345 101.881 308.693C101.526 309.042 101.327 309.514 101.327 310.006C101.327 310.498 101.526 310.971 101.881 311.319C102.236 311.667 102.718 311.862 103.22 311.862H110.879C110.823 312.011 110.794 312.168 110.792 312.326V325.321C110.792 325.69 110.942 326.044 111.208 326.305C111.474 326.566 111.836 326.713 112.212 326.713C112.589 326.713 112.95 326.566 113.216 326.305C113.482 326.044 113.632 325.69 113.632 325.321V312.326C113.63 312.168 113.601 312.011 113.545 311.862H167.673C167.617 312.011 167.588 312.168 167.586 312.326V325.321C167.586 325.69 167.736 326.044 168.002 326.305C168.269 326.566 168.63 326.713 169.006 326.713C169.383 326.713 169.744 326.566 170.01 326.305C170.277 326.044 170.426 325.69 170.426 325.321V312.326C170.424 312.168 170.395 312.011 170.339 311.862H177.999C178.501 311.862 178.982 311.667 179.337 311.319C179.692 310.971 179.892 310.498 179.892 310.006C179.892 309.514 179.692 309.042 179.337 308.693C178.982 308.345 178.501 308.15 177.999 308.15H169.953V304.437H178.945C179.196 304.437 179.437 304.339 179.615 304.165C179.792 303.991 179.892 303.755 179.892 303.509C179.892 303.263 179.792 303.027 179.615 302.853C179.437 302.679 179.196 302.581 178.945 302.581H169.953V298.868H178.945ZM113.159 293.299H168.06V297.012H113.159V293.299ZM168.06 308.15H113.159V304.437H168.06V308.15ZM168.06 302.581H113.159V298.868H168.06V302.581Z" fill="#3F3D56"/>
<path d="M477.114 293.763H474.274C473.898 293.763 473.537 293.616 473.271 293.355C473.005 293.094 472.855 292.74 472.854 292.371V289.587C472.855 289.217 473.005 288.864 473.271 288.603C473.537 288.342 473.898 288.195 474.274 288.194H477.114C477.49 288.195 477.851 288.342 478.117 288.603C478.384 288.864 478.533 289.217 478.534 289.587V292.371C478.533 292.74 478.384 293.094 478.117 293.355C477.851 293.616 477.49 293.763 477.114 293.763Z" fill="#CCCCCC"/>
<path d="M475.747 290.695C475.693 290.695 475.639 290.691 475.586 290.681C475.463 290.661 475.346 290.617 475.241 290.552C475.136 290.487 475.045 290.402 474.973 290.302C474.901 290.203 474.85 290.09 474.823 289.972C474.796 289.853 474.792 289.73 474.813 289.61L484.175 236.197C484.218 235.955 484.357 235.739 484.562 235.598C484.767 235.456 485.02 235.4 485.268 235.442C485.515 235.483 485.735 235.619 485.88 235.82C486.025 236.021 486.082 236.269 486.04 236.512L476.679 289.924C476.641 290.14 476.527 290.335 476.357 290.476C476.186 290.617 475.97 290.695 475.747 290.695Z" fill="#CCCCCC"/>
<path d="M475.745 290.695C475.522 290.695 475.306 290.617 475.136 290.476C474.966 290.335 474.851 290.14 474.813 289.924L465.452 236.512C465.41 236.269 465.467 236.02 465.612 235.819C465.757 235.618 465.978 235.481 466.225 235.44C466.472 235.398 466.727 235.454 466.932 235.596C467.137 235.738 467.276 235.955 467.318 236.197L476.679 289.61C476.7 289.73 476.697 289.853 476.67 289.972C476.642 290.09 476.591 290.203 476.519 290.302C476.448 290.402 476.357 290.487 476.252 290.552C476.146 290.617 476.029 290.661 475.907 290.681C475.853 290.691 475.799 290.695 475.745 290.695Z" fill="#CCCCCC"/>
<path d="M495.899 227.054C496.812 220.716 493.359 214.997 488.188 214.281C483.016 213.565 478.084 218.123 477.172 224.462C476.402 229.808 478.743 234.7 482.596 236.535L482.377 238.059L487.059 238.707L487.278 237.183C491.498 236.466 495.129 232.4 495.899 227.054Z" fill="#FB3640"/>
<path d="M474.159 224.17C473.039 217.863 467.96 213.463 462.815 214.342C457.669 215.221 454.407 221.046 455.527 227.352C456.472 232.671 460.234 236.62 464.476 237.204L464.745 238.72L469.403 237.924L469.134 236.408C472.925 234.453 475.104 229.489 474.159 224.17Z" fill="#CCCCCC"/>
<path d="M475.694 289.587C475.443 289.587 475.202 289.489 475.025 289.315C474.847 289.141 474.748 288.905 474.748 288.658V233.75C474.748 233.504 474.847 233.268 475.025 233.094C475.202 232.92 475.443 232.822 475.694 232.822C475.945 232.822 476.186 232.92 476.363 233.094C476.541 233.268 476.641 233.504 476.641 233.75V288.658C476.641 288.905 476.541 289.141 476.363 289.315C476.186 289.489 475.945 289.587 475.694 289.587Z" fill="#CCCCCC"/>
<path d="M484.564 223.204C484.564 216.802 480.33 211.613 475.108 211.613C469.885 211.613 465.651 216.802 465.651 223.204C465.651 228.603 468.667 233.126 472.743 234.415V235.954H477.472V234.415C481.548 233.126 484.564 228.603 484.564 223.204Z" fill="#2E8CCB"/>
<path d="M672.522 328.139H1.12705C0.828139 328.139 0.54147 328.023 0.330106 327.816C0.118741 327.609 0 327.327 0 327.034C0 326.741 0.118741 326.46 0.330106 326.253C0.54147 326.046 0.828139 325.929 1.12705 325.929H672.522C672.821 325.929 673.107 326.046 673.319 326.253C673.53 326.46 673.649 326.741 673.649 327.034C673.649 327.327 673.53 327.609 673.319 327.816C673.107 328.023 672.821 328.139 672.522 328.139Z" fill="#CCCCCC"/>
<path d="M523.901 326.162L521.748 326.161L520.724 318.019H523.901V326.162Z" fill="#A0616A"/>
<path d="M519.904 325.559H524.362V328.122H517.596V327.821C517.596 327.524 517.656 327.23 517.772 326.955C517.888 326.681 518.058 326.431 518.272 326.221C518.486 326.011 518.741 325.845 519.02 325.731C519.3 325.617 519.601 325.559 519.904 325.559Z" fill="#2F2E41"/>
<path d="M539.523 323.77L537.564 324.648L533.183 317.659L536.072 316.364L539.523 323.77Z" fill="#A0616A"/>
<path d="M535.631 324.85L539.687 323.034L540.773 325.366L534.618 328.122L534.491 327.849C534.365 327.578 534.295 327.287 534.284 326.99C534.273 326.693 534.322 326.396 534.428 326.118C534.534 325.84 534.694 325.584 534.901 325.367C535.107 325.149 535.355 324.974 535.631 324.85Z" fill="#2F2E41"/>
<path d="M523.764 324.015H521.707C521.508 324.014 521.316 323.94 521.17 323.807C521.024 323.673 520.934 323.491 520.919 323.296L519.797 293.926C519.789 293.814 519.806 293.701 519.847 293.595C519.887 293.49 519.951 293.394 520.034 293.315C520.116 293.237 520.215 293.176 520.324 293.139C520.432 293.102 520.548 293.088 520.662 293.099L532.557 294.338C532.75 294.356 532.929 294.443 533.061 294.583C533.192 294.722 533.267 294.904 533.271 295.094L533.52 308.05C533.521 308.12 533.535 308.189 533.561 308.255L538.441 320.662C538.478 320.758 538.496 320.861 538.493 320.963C538.49 321.066 538.466 321.167 538.423 321.261C538.38 321.354 538.318 321.438 538.242 321.508C538.165 321.578 538.075 321.633 537.976 321.668L535.892 322.421C535.711 322.487 535.512 322.485 535.332 322.416C535.152 322.347 535.005 322.217 534.916 322.049L528.922 310.62C528.89 310.558 528.866 310.492 528.851 310.423L527.827 305.585C527.797 305.445 527.718 305.32 527.602 305.232C527.487 305.144 527.344 305.099 527.198 305.106C527.052 305.112 526.913 305.17 526.806 305.267C526.699 305.365 526.631 305.497 526.615 305.639L524.549 323.328C524.527 323.517 524.435 323.692 524.29 323.818C524.145 323.945 523.958 324.015 523.764 324.015Z" fill="#2F2E41"/>
<path d="M524.788 270.962C527.17 270.962 529.101 269.068 529.101 266.732C529.101 264.396 527.17 262.503 524.788 262.503C522.406 262.503 520.475 264.396 520.475 266.732C520.475 269.068 522.406 270.962 524.788 270.962Z" fill="#A0616A"/>
<path d="M527.762 296.606C524.98 296.573 522.258 295.81 519.877 294.397C519.755 294.323 519.655 294.217 519.59 294.092C519.524 293.966 519.495 293.825 519.506 293.684L520.555 278.983C520.622 277.991 520.925 277.028 521.44 276.171C521.955 275.315 522.667 274.588 523.519 274.049C524.333 273.521 525.262 273.187 526.232 273.073C527.201 272.96 528.185 273.071 529.103 273.397C529.508 273.534 529.89 273.728 530.238 273.974C531.356 274.755 532.233 275.822 532.775 277.058C533.317 278.294 533.502 279.652 533.311 280.984C532.542 286.705 533.413 294.421 533.515 295.282L533.522 295.344L533.464 295.37C531.678 296.184 529.732 296.606 527.762 296.606Z" fill="#FF4D6D"/>
<path d="M533.253 298.706C533.459 298.554 533.629 298.359 533.75 298.136C533.872 297.912 533.941 297.665 533.955 297.413C533.968 297.16 533.925 296.907 533.828 296.673C533.731 296.438 533.583 296.227 533.394 296.055L535.925 290.424L532.709 290.958L530.799 296.223C530.525 296.554 530.384 296.972 530.402 297.398C530.421 297.823 530.599 298.228 530.901 298.534C531.204 298.84 531.61 299.026 532.044 299.058C532.477 299.09 532.907 298.965 533.253 298.706Z" fill="#A0616A"/>
<path d="M533.495 295.228C533.386 295.228 533.277 295.206 533.177 295.162C533.077 295.119 532.987 295.056 532.913 294.977L531.97 293.967C531.878 293.869 531.814 293.748 531.783 293.618C531.752 293.488 531.756 293.352 531.795 293.224L533.956 286.053L530.668 279.282C530.523 278.985 530.488 278.647 530.568 278.327C530.638 278.046 530.793 277.793 531.013 277.6C531.233 277.407 531.508 277.285 531.8 277.248C532.093 277.211 532.39 277.262 532.652 277.395C532.915 277.527 533.13 277.734 533.27 277.989L537.715 285.061C537.887 285.335 537.989 285.647 538.01 285.97C538.031 286.292 537.971 286.614 537.836 286.908L534.216 294.772C534.163 294.889 534.08 294.991 533.976 295.069C533.872 295.147 533.75 295.198 533.621 295.218C533.579 295.225 533.537 295.228 533.495 295.228Z" fill="#FF4D6D"/>
<path d="M528.342 270.461C527.895 270.536 527.527 269.926 527.471 269.496C527.475 269.071 527.516 268.648 527.592 268.229C527.617 268.007 527.569 267.783 527.454 267.59C527.338 267.396 527.163 267.245 526.953 267.158C526.479 267.025 526.04 267.398 525.555 267.353C524.879 267.29 524.54 266.515 524.458 265.888C524.376 265.26 524.312 264.518 523.727 264.16C523.143 263.803 522.421 264.063 521.751 264.074C521.178 264.068 520.622 263.883 520.163 263.546C519.704 263.209 519.367 262.737 519.2 262.2C519.337 262.239 519.484 262.232 519.617 262.179C519.75 262.127 519.861 262.033 519.933 261.912C519.99 261.783 520.001 261.639 519.966 261.502C519.931 261.366 519.85 261.245 519.737 261.158L521.022 261.775C520.989 261.688 520.975 261.595 520.981 261.503C520.986 261.41 521.011 261.32 521.054 261.237C521.096 261.154 521.156 261.081 521.228 261.022C521.301 260.963 521.385 260.919 521.476 260.893C521.866 260.792 522.276 260.788 522.668 260.881C524.679 261.187 527.008 261.036 528.342 262.54C529.348 263.759 529.905 265.276 529.922 266.845C529.603 268.128 529.069 269.35 528.342 270.461Z" fill="#2F2E41"/>
<path d="M505.471 277.671C505.696 277.546 505.945 277.47 506.202 277.45C506.46 277.43 506.719 277.465 506.961 277.553C507.203 277.641 507.422 277.78 507.603 277.961C507.784 278.141 507.923 278.358 508.009 278.596L514.285 278.552L512.509 281.234L506.822 280.865C506.404 280.981 505.957 280.942 505.565 280.756C505.174 280.57 504.866 280.25 504.7 279.857C504.533 279.463 504.52 279.023 504.662 278.62C504.804 278.217 505.092 277.88 505.471 277.671Z" fill="#A0616A"/>
<path d="M508.737 280.595C508.714 280.49 508.714 280.381 508.737 280.276C508.76 280.171 508.805 280.072 508.869 279.985L509.684 278.873C509.764 278.765 509.871 278.679 509.995 278.623C510.118 278.567 510.255 278.543 510.39 278.554L517.731 278.252L524.08 274.629C524.348 274.43 524.677 274.327 525.013 274.338C525.308 274.348 525.593 274.446 525.83 274.617C526.067 274.789 526.246 275.028 526.342 275.301C526.439 275.575 526.448 275.87 526.369 276.149C526.291 276.428 526.128 276.677 525.902 276.863L519.748 282.572C519.509 282.794 519.218 282.955 518.901 283.041C518.583 283.127 518.249 283.135 517.928 283.065L509.339 281.194C509.211 281.166 509.093 281.108 508.994 281.024C508.895 280.94 508.818 280.833 508.772 280.714C508.757 280.675 508.745 280.635 508.737 280.595Z" fill="#FF4D6D"/>
<path d="M400.827 322.694C400.916 322.449 400.949 322.187 400.923 321.927C400.898 321.668 400.815 321.417 400.68 321.193C400.545 320.968 400.361 320.775 400.142 320.628C399.923 320.48 399.673 320.382 399.411 320.339L398.321 314.094L395.87 316.345L397.281 321.93C397.237 322.366 397.358 322.804 397.621 323.159C397.884 323.514 398.271 323.762 398.708 323.856C399.145 323.951 399.602 323.884 399.992 323.67C400.383 323.456 400.68 323.109 400.827 322.694Z" fill="#FFB8B8"/>
<path d="M399.198 319.707L396.792 320.326C396.678 320.355 396.556 320.339 396.453 320.281C396.351 320.224 396.275 320.129 396.242 320.018L391.918 304.995L390.612 301.163C390.486 300.793 390.457 300.399 390.529 300.016C390.6 299.633 390.769 299.274 391.02 298.972C391.271 298.67 391.596 298.436 391.964 298.29C392.332 298.144 392.732 298.093 393.126 298.139C393.583 298.193 394.013 298.377 394.364 298.667C394.715 298.958 394.971 299.344 395.102 299.776L398.557 311.228L399.532 319.225C399.543 319.314 399.526 319.404 399.484 319.483C399.441 319.563 399.375 319.628 399.295 319.67C399.264 319.686 399.232 319.698 399.198 319.707Z" fill="#FF4D6D"/>
<path d="M390.404 295.605C392.857 295.605 394.845 293.656 394.845 291.251C394.845 288.846 392.857 286.896 390.404 286.896C387.952 286.896 385.963 288.846 385.963 291.251C385.963 293.656 387.952 295.605 390.404 295.605Z" fill="#FFB8B8"/>
<path d="M377.328 350.823L375.203 350.203L376.631 341.872L379.767 342.787L377.328 350.823Z" fill="#FFB8B8"/>
<path d="M377.257 353L370.407 351.001L370.432 350.916C370.536 350.573 370.709 350.253 370.939 349.975C371.169 349.697 371.453 349.466 371.774 349.295C372.096 349.125 372.448 349.018 372.811 348.981C373.175 348.944 373.542 348.977 373.892 349.08H373.892L378.077 350.3L377.257 353Z" fill="#2F2E41"/>
<path d="M400.606 350.716L398.389 350.715L397.335 342.331L399.522 342.332L400.606 350.716Z" fill="#FFB8B8"/>
<path d="M401.172 352.823L394.024 352.823V352.734C394.024 352.376 394.096 352.021 394.236 351.69C394.375 351.359 394.58 351.058 394.839 350.805C395.097 350.552 395.404 350.351 395.741 350.214C396.079 350.076 396.441 350.006 396.806 350.006H396.806L401.172 350.006L401.172 352.823Z" fill="#2F2E41"/>
<path d="M378.146 348.358H375.92C375.801 348.357 375.683 348.332 375.575 348.282C375.467 348.232 375.371 348.16 375.295 348.07C375.218 347.98 375.163 347.875 375.133 347.762C375.103 347.649 375.098 347.53 375.12 347.415C373.7 346.796 381.343 310.859 383.148 311.556L383.208 311.472L392.3 312.199C396.373 320.192 398.951 333.417 401.363 347.224C401.393 347.338 401.396 347.458 401.373 347.574C401.35 347.69 401.301 347.799 401.229 347.894C401.157 347.989 401.065 348.068 400.959 348.123C400.852 348.179 400.735 348.211 400.614 348.217L398.113 348.336C397.944 348.344 397.776 348.301 397.634 348.211C397.491 348.121 397.381 347.99 397.318 347.835L387.737 324.349C387.718 324.297 387.683 324.253 387.636 324.223C387.59 324.193 387.535 324.179 387.479 324.182C387.424 324.182 387.37 324.2 387.325 324.232C387.28 324.264 387.247 324.309 387.229 324.36L378.914 347.822C378.859 347.978 378.755 348.114 378.617 348.21C378.479 348.306 378.315 348.357 378.146 348.358Z" fill="#2F2E41"/>
<path d="M392.491 312.902L392.421 312.897L382.74 312.181L384.439 301.591C384.625 300.409 385.196 299.317 386.067 298.48C386.938 297.642 388.061 297.103 389.27 296.943C389.345 296.933 389.42 296.923 389.495 296.913C390.445 296.791 391.41 296.909 392.3 297.258C393.189 297.607 393.972 298.175 394.573 298.906C395.189 299.641 395.601 300.52 395.771 301.456C395.94 302.393 395.861 303.357 395.541 304.255L392.491 312.902Z" fill="#FF4D6D"/>
<path d="M399.028 296.231C395.974 297.601 391.831 297.356 387.094 296.231C387.75 294.471 388.26 292.77 387.681 291.522C387.447 291.051 387.315 290.537 387.293 290.014C387.271 289.49 387.36 288.968 387.554 288.479C388.008 287.414 388.773 286.505 389.753 285.865C390.733 285.225 391.884 284.884 393.061 284.884C394.643 284.884 396.161 285.501 397.28 286.598C398.399 287.695 399.028 289.183 399.028 290.735L399.028 296.231Z" fill="#2F2E41"/>
<path d="M389.232 285.283H392.519V289.861H384.563C384.563 289.26 384.683 288.665 384.918 288.109C385.153 287.554 385.497 287.049 385.93 286.624C386.364 286.199 386.879 285.861 387.445 285.631C388.012 285.401 388.619 285.283 389.232 285.283Z" fill="#2F2E41"/>
<path d="M382.531 323.679C382.727 323.503 382.881 323.287 382.983 323.046C383.084 322.805 383.131 322.546 383.119 322.285C383.107 322.025 383.037 321.77 382.914 321.539C382.79 321.308 382.617 321.107 382.406 320.948L384.427 314.931L381.187 315.792L379.764 321.375C379.516 321.74 379.414 322.182 379.477 322.617C379.539 323.051 379.762 323.448 380.104 323.732C380.445 324.016 380.88 324.168 381.328 324.158C381.775 324.148 382.203 323.978 382.531 323.679Z" fill="#FFB8B8"/>
<path d="M382.52 320.292L380.099 319.733C379.984 319.706 379.884 319.636 379.821 319.538C379.758 319.44 379.736 319.322 379.76 319.208L383.12 303.95L383.798 299.964C383.863 299.58 384.026 299.219 384.272 298.913C384.518 298.608 384.839 298.368 385.205 298.217C385.571 298.066 385.97 298.008 386.365 298.048C386.76 298.089 387.138 298.227 387.464 298.449C387.841 298.706 388.134 299.066 388.305 299.484C388.476 299.903 388.518 300.361 388.427 300.802L386.006 312.507L383.046 320.02C383.012 320.103 382.954 320.175 382.879 320.226C382.804 320.276 382.714 320.303 382.623 320.303C382.589 320.303 382.554 320.3 382.52 320.292Z" fill="#FF4D6D"/>
<path d="M457.361 287.13C457.268 287.154 457.176 287.185 457.088 287.222L449.812 282.62L449.912 280.56L446.761 280.005L446.222 283.635C446.179 283.928 446.233 284.227 446.378 284.488C446.522 284.748 446.749 284.955 447.024 285.078L455.985 289.089C456.03 289.452 456.186 289.792 456.432 290.065C456.679 290.338 457.005 290.531 457.366 290.619C457.727 290.706 458.107 290.683 458.455 290.554C458.803 290.424 459.103 290.194 459.314 289.893C459.525 289.593 459.638 289.237 459.637 288.872C459.637 288.507 459.523 288.151 459.311 287.851C459.099 287.551 458.799 287.321 458.451 287.192C458.102 287.064 457.722 287.042 457.361 287.13H457.361Z" fill="#FFB8B8"/>
<path d="M449.515 282.493L445.613 281.787C445.502 281.766 445.397 281.723 445.304 281.66C445.212 281.596 445.135 281.513 445.078 281.418C445.021 281.322 444.985 281.216 444.974 281.106C444.963 280.996 444.976 280.884 445.012 280.78L446.293 277.11C446.4 276.552 446.728 276.059 447.206 275.738C447.683 275.418 448.271 275.297 448.84 275.401C449.409 275.506 449.912 275.828 450.238 276.296C450.565 276.765 450.689 277.341 450.582 277.899L450.443 281.763C450.439 281.873 450.411 281.982 450.36 282.081C450.309 282.18 450.238 282.267 450.15 282.336C450.061 282.405 449.959 282.455 449.85 282.482C449.74 282.509 449.626 282.513 449.515 282.493Z" fill="#3F3D56"/>
<path d="M463.083 272.538C463.062 272.631 463.048 272.725 463.041 272.819L455.542 277.062L453.719 276.033L451.776 278.527L454.822 280.657C455.068 280.829 455.365 280.918 455.667 280.91C455.969 280.903 456.261 280.8 456.498 280.616L464.231 274.634C464.58 274.761 464.96 274.78 465.321 274.69C465.682 274.6 466.006 274.404 466.25 274.129C466.494 273.853 466.647 273.512 466.689 273.149C466.73 272.786 466.658 272.42 466.482 272.098C466.306 271.777 466.034 271.516 465.703 271.349C465.372 271.183 464.997 271.12 464.628 271.167C464.259 271.215 463.913 271.372 463.637 271.617C463.362 271.862 463.168 272.183 463.083 272.539L463.083 272.538Z" fill="#FFB8B8"/>
<path d="M455.291 277.262L452.867 280.343C452.798 280.43 452.711 280.503 452.611 280.554C452.511 280.606 452.401 280.635 452.288 280.641C452.175 280.647 452.063 280.63 451.958 280.589C451.853 280.549 451.758 280.486 451.679 280.407L448.935 277.613C448.478 277.265 448.181 276.753 448.109 276.19C448.036 275.627 448.195 275.059 448.55 274.611C448.905 274.162 449.426 273.871 450.001 273.8C450.575 273.729 451.154 273.885 451.611 274.233L455.053 276.12C455.151 276.174 455.237 276.248 455.303 276.337C455.37 276.427 455.416 276.529 455.439 276.637C455.461 276.746 455.46 276.858 455.434 276.966C455.409 277.074 455.36 277.175 455.291 277.262V277.262Z" fill="#CCCCCC"/>
<path d="M445.365 269.908C447.733 269.908 449.653 268.025 449.653 265.703C449.653 263.381 447.733 261.499 445.365 261.499C442.997 261.499 441.077 263.381 441.077 265.703C441.077 268.025 442.997 269.908 445.365 269.908Z" fill="#FFB8B8"/>
<path d="M449.413 325.905H451.553L452.571 317.81H449.412L449.413 325.905Z" fill="#FFB8B8"/>
<path d="M448.867 325.22L453.082 325.22H453.082C453.435 325.22 453.784 325.288 454.11 325.42C454.436 325.553 454.732 325.747 454.982 325.991C455.231 326.236 455.429 326.526 455.564 326.846C455.699 327.165 455.768 327.508 455.768 327.854V327.939L448.867 327.94L448.867 325.22Z" fill="#2F2E41"/>
<path d="M442.08 325.905H444.22L445.239 317.81H442.08V325.905Z" fill="#FFB8B8"/>
<path d="M441.534 325.22L445.749 325.22H445.75C446.102 325.22 446.452 325.288 446.778 325.42C447.103 325.553 447.4 325.747 447.649 325.991C447.898 326.236 448.096 326.526 448.231 326.846C448.366 327.165 448.436 327.508 448.436 327.854V327.939L441.534 327.94L441.534 325.22Z" fill="#2F2E41"/>
<path d="M448.771 322.833L446.587 306.27C446.586 306.248 446.576 306.227 446.56 306.212C446.543 306.197 446.521 306.189 446.499 306.19C446.488 306.189 446.476 306.191 446.466 306.195C446.456 306.199 446.446 306.205 446.438 306.213C446.43 306.221 446.424 306.23 446.419 306.24C446.415 306.25 446.413 306.261 446.413 306.272L445.786 322.595C445.779 322.794 445.693 322.983 445.546 323.122C445.4 323.26 445.204 323.337 445 323.337H442.408C442.203 323.338 442.005 323.259 441.858 323.119C441.711 322.978 441.626 322.786 441.623 322.585L440.95 295.389L452.552 295.502L452.841 322.786C452.839 322.894 452.813 323.001 452.765 323.099C452.718 323.197 452.65 323.284 452.566 323.354C452.484 323.424 452.387 323.476 452.283 323.506C452.179 323.537 452.07 323.546 451.962 323.532L449.448 323.539C449.27 323.515 449.105 323.432 448.982 323.303C448.859 323.175 448.784 323.009 448.771 322.833Z" fill="#2F2E41"/>
<path d="M440.778 296.132C440.648 296.084 440.534 296.002 440.447 295.896C440.359 295.79 440.303 295.663 440.282 295.528L440.166 280.582C439.653 277.254 439.047 273.993 442.014 272.307L442.276 271.537C442.304 271.454 442.358 271.382 442.43 271.329C442.501 271.277 442.588 271.248 442.677 271.245L448.306 271.087C448.394 271.084 448.48 271.107 448.554 271.154C448.628 271.2 448.686 271.267 448.72 271.346L449.139 272.304L449.287 272.387C450.702 273.178 451.847 274.36 452.579 275.785C453.312 277.21 453.6 278.816 453.407 280.401L453.085 283.065L452.857 295.517C452.854 295.654 452.814 295.787 452.742 295.904C452.669 296.021 452.567 296.117 452.444 296.183C450.852 296.994 449.077 297.399 447.283 297.361C445.059 297.321 442.858 296.906 440.778 296.132Z" fill="#FB3640"/>
<path d="M445.226 270.064C444.58 270.077 443.939 269.957 443.345 269.71C442.75 269.464 442.216 269.097 441.776 268.633C441.336 268.17 441.002 267.62 440.794 267.021C440.587 266.421 440.511 265.786 440.572 265.155C440.633 264.525 440.829 263.915 441.148 263.364C441.466 262.814 441.9 262.336 442.421 261.961C442.941 261.587 443.537 261.325 444.168 261.192C444.799 261.06 445.451 261.059 446.083 261.192C447.012 260.592 448.11 260.297 449.221 260.348C449.773 260.383 450.306 260.562 450.763 260.868C451.22 261.175 451.584 261.596 451.817 262.088C452.025 262.59 452.032 263.151 451.837 263.658C451.642 264.164 451.259 264.581 450.765 264.823C450.082 265.017 449.359 265.027 448.671 264.853C447.981 264.679 447.25 264.742 446.601 265.032C445.993 265.386 445.72 266.334 446.264 266.776C446.553 267.02 446.759 267.344 446.856 267.705C446.952 268.067 446.933 268.449 446.803 268.8C446.675 269.127 446.462 269.415 446.186 269.637C445.909 269.859 445.578 270.006 445.226 270.064Z" fill="#2F2E41"/>
<path d="M196.569 350.636H198.655L199.647 342.747H196.568L196.569 350.636Z" fill="#FFB8B8"/>
<path d="M195.649 353L195.649 349.588L200.145 349.588C200.942 349.589 201.706 349.9 202.269 350.452C202.833 351.005 203.15 351.754 203.151 352.536V353L195.649 353Z" fill="#2F2E41"/>
<path d="M185.326 350.636H187.411L188.403 342.747H185.325L185.326 350.636Z" fill="#FFB8B8"/>
<path d="M184.405 353L184.405 349.588L188.901 349.588C189.698 349.589 190.462 349.9 191.026 350.452C191.59 351.005 191.907 351.754 191.908 352.536V353L184.405 353Z" fill="#2F2E41"/>
<path d="M191.434 294.551C193.909 294.551 195.916 292.584 195.916 290.157C195.916 287.73 193.909 285.763 191.434 285.763C188.959 285.763 186.953 287.73 186.953 290.157C186.953 292.584 188.959 294.551 191.434 294.551Z" fill="#FFB8B8"/>
<path d="M206.758 318.815C206.727 318.572 206.641 318.338 206.508 318.131C206.375 317.923 206.197 317.747 205.986 317.614C205.776 317.482 205.538 317.396 205.29 317.363C205.043 317.33 204.79 317.35 204.552 317.423L202.047 314.479L199.851 315.536L203.448 319.644C203.599 320.029 203.89 320.347 204.264 320.536C204.638 320.725 205.07 320.774 205.478 320.671C205.886 320.569 206.242 320.324 206.478 319.982C206.714 319.64 206.813 319.225 206.758 318.815Z" fill="#FFB8B8"/>
<path d="M185.203 321.793C185.31 321.571 185.366 321.329 185.367 321.083C185.368 320.838 185.314 320.596 185.209 320.373C185.104 320.15 184.95 319.953 184.759 319.795C184.568 319.637 184.344 319.521 184.103 319.457L183.6 315.655L181.169 315.392L181.956 320.751C181.873 321.156 181.945 321.576 182.157 321.933C182.369 322.29 182.707 322.557 183.108 322.686C183.508 322.814 183.942 322.794 184.328 322.63C184.715 322.465 185.026 322.167 185.203 321.793H185.203Z" fill="#FFB8B8"/>
<path d="M187.689 298.457C187.451 298.157 187.136 297.924 186.776 297.781C186.417 297.639 186.025 297.592 185.641 297.645C185.257 297.698 184.894 297.85 184.589 298.084C184.284 298.319 184.047 298.628 183.903 298.981L180.23 307.97C179.854 308.889 179.735 309.889 179.883 310.867L181.079 318.768C181.095 318.87 181.133 318.967 181.19 319.054C181.247 319.14 181.323 319.213 181.412 319.268C181.501 319.323 181.601 319.359 181.705 319.372C181.809 319.386 181.915 319.377 182.016 319.347L183.592 318.872C183.755 318.823 183.896 318.719 183.989 318.579C184.082 318.439 184.122 318.271 184.103 318.105C183.546 313.453 184.281 308.741 186.231 304.466L187.962 300.668C188.126 300.31 188.186 299.915 188.138 299.525C188.09 299.136 187.935 298.767 187.689 298.457Z" fill="#FB3640"/>
<path d="M190.343 294.551C189.669 294.566 188.999 294.44 188.377 294.182C187.756 293.925 187.197 293.541 186.738 293.056C186.279 292.572 185.929 291.998 185.712 291.371C185.495 290.745 185.416 290.08 185.48 289.422C185.543 288.763 185.748 288.125 186.081 287.55C186.414 286.975 186.868 286.475 187.412 286.084C187.956 285.693 188.578 285.419 189.238 285.28C189.897 285.141 190.579 285.141 191.239 285.279C192.21 284.653 193.358 284.344 194.519 284.398C195.096 284.434 195.653 284.621 196.13 284.941C196.608 285.261 196.989 285.702 197.232 286.216C197.449 286.741 197.457 287.327 197.253 287.856C197.049 288.386 196.649 288.821 196.133 289.075C195.419 289.277 194.663 289.287 193.944 289.105C193.223 288.924 192.459 288.99 191.781 289.293C191.145 289.662 190.86 290.653 191.429 291.116C191.731 291.37 191.946 291.709 192.047 292.087C192.147 292.465 192.128 292.864 191.992 293.23C191.858 293.572 191.636 293.874 191.347 294.106C191.057 294.338 190.711 294.491 190.343 294.551Z" fill="#2F2E41"/>
<path d="M184.783 318.641L183.988 348.223C183.985 348.322 184.004 348.42 184.041 348.511C184.079 348.602 184.136 348.685 184.208 348.754C184.28 348.823 184.366 348.876 184.46 348.911C184.554 348.946 184.654 348.961 184.755 348.956L187.374 348.825C187.541 348.817 187.7 348.753 187.824 348.643C187.949 348.533 188.031 348.385 188.057 348.223L191.172 329.01C191.185 328.927 191.227 328.852 191.291 328.797C191.355 328.742 191.436 328.711 191.521 328.708C191.606 328.706 191.689 328.732 191.756 328.783C191.823 328.834 191.87 328.907 191.889 328.988L196.105 347.487C196.127 347.586 196.171 347.679 196.233 347.76C196.295 347.841 196.374 347.908 196.464 347.957C196.555 348.006 196.655 348.036 196.758 348.044C196.861 348.052 196.964 348.039 197.062 348.005L199.661 347.85C199.811 347.797 199.94 347.698 200.027 347.567C200.114 347.436 200.155 347.28 200.144 347.124L197.875 318.361L184.783 318.641Z" fill="#2F2E41"/>
<path d="M183.507 304.591C183.396 303.525 183.503 302.447 183.821 301.422C184.14 300.396 184.664 299.443 185.363 298.618C186.062 297.794 186.921 297.114 187.891 296.619C188.861 296.124 189.922 295.823 191.011 295.735C192.985 295.598 196.049 295.548 197.06 298.085C200.103 305.727 194.775 305.542 196.611 312.163C198.446 318.784 200.067 319.163 197.549 319.641C195.031 320.12 183.706 322.942 184.171 318.282C184.457 315.417 183.945 309.063 183.507 304.591Z" fill="#FB3640"/>
<path d="M196.521 297.308C196.159 297.171 195.767 297.129 195.384 297.188C195 297.247 194.64 297.404 194.338 297.643C194.037 297.882 193.805 298.195 193.666 298.55C193.527 298.905 193.486 299.29 193.548 299.666L194.978 308.431C195.223 309.93 195.869 311.338 196.851 312.511L201.496 318.062C201.563 318.142 201.647 318.206 201.741 318.251C201.836 318.296 201.939 318.321 202.044 318.323C202.149 318.326 202.253 318.306 202.35 318.265C202.446 318.224 202.533 318.163 202.603 318.087L203.706 316.885C203.821 316.761 203.887 316.601 203.893 316.434C203.9 316.266 203.846 316.102 203.742 315.97L203.417 315.556C200.715 312.117 199.01 308.026 198.483 303.716L197.914 299.067C197.866 298.677 197.711 298.308 197.466 297.998C197.221 297.688 196.894 297.45 196.521 297.308Z" fill="#FB3640"/>
<path d="M206.972 320.852C207.202 320.74 207.404 320.579 207.564 320.382C207.724 320.185 207.838 319.956 207.898 319.711C207.958 319.466 207.962 319.211 207.911 318.964C207.859 318.718 207.753 318.485 207.6 318.282L208.914 305.684H206.074L205.03 317.986C204.7 318.26 204.485 318.644 204.425 319.064C204.364 319.484 204.463 319.911 204.702 320.265C204.942 320.618 205.305 320.873 205.723 320.981C206.141 321.089 206.586 321.043 206.972 320.852V320.852Z" fill="#A0616A"/>
<path d="M209.579 298.73C211.798 298.73 213.597 296.966 213.597 294.791C213.597 292.615 211.798 290.851 209.579 290.851C207.36 290.851 205.561 292.615 205.561 294.791C205.561 296.966 207.36 298.73 209.579 298.73Z" fill="#A0616A"/>
<path d="M210.336 313.021C210.175 313.021 210.018 312.969 209.891 312.873C209.763 312.778 209.67 312.644 209.627 312.492C208.953 310.509 208.121 308.582 207.138 306.728C206.838 306.123 206.672 305.462 206.651 304.789C206.629 304.117 206.753 303.447 207.014 302.825C207.275 302.202 207.668 301.641 208.165 301.178C208.663 300.714 209.255 300.36 209.903 300.137C210.517 299.924 211.168 299.834 211.817 299.873C212.467 299.911 213.102 300.077 213.685 300.361C214.268 300.644 214.787 301.039 215.212 301.523C215.636 302.007 215.958 302.569 216.157 303.176C216.911 305.732 217.219 308.395 217.069 311.052C217.06 311.21 216.999 311.361 216.894 311.481C216.79 311.602 216.648 311.686 216.49 311.72L210.494 313.004C210.442 313.015 210.389 313.021 210.336 313.021Z" fill="#2E8CCB"/>
<path d="M216.143 350.434H218.149L219.103 342.848H216.142L216.143 350.434Z" fill="#A0616A"/>
<path d="M222.49 352.724H215.24L215.24 349.408H219.582C219.964 349.408 220.342 349.482 220.695 349.625C221.048 349.768 221.368 349.978 221.638 350.243C221.908 350.508 222.123 350.822 222.269 351.168C222.415 351.514 222.49 351.885 222.49 352.26L222.49 352.724Z" fill="#2F2E41"/>
<path d="M196.087 347.885L197.845 348.833L202.408 342.637L199.815 341.238L196.087 347.885Z" fill="#A0616A"/>
<path d="M200.524 352.89L194.171 349.465L195.8 346.559L199.605 348.61C200.281 348.975 200.781 349.587 200.996 350.314C201.212 351.04 201.124 351.821 200.752 352.483L200.524 352.89Z" fill="#2F2E41"/>
<path d="M216.049 346.224C215.87 346.223 215.698 346.16 215.564 346.044C215.429 345.928 215.343 345.768 215.32 345.595L212.812 326.642C212.8 326.558 212.763 326.48 212.703 326.418C212.644 326.357 212.567 326.315 212.482 326.3C212.397 326.284 212.31 326.295 212.232 326.331C212.154 326.367 212.089 326.426 212.048 326.5L201.594 345.097C201.508 345.249 201.369 345.365 201.203 345.425C201.036 345.485 200.854 345.484 200.688 345.423L198.409 344.572C198.317 344.538 198.234 344.486 198.163 344.419C198.092 344.353 198.035 344.273 197.996 344.185C197.957 344.097 197.936 344.002 197.935 343.906C197.934 343.81 197.952 343.714 197.989 343.625L205.231 326.182C205.249 326.138 205.261 326.091 205.268 326.044C206.248 318.6 208.744 314.815 209.485 313.832C209.54 313.76 209.575 313.676 209.589 313.587C209.603 313.499 209.596 313.408 209.566 313.323L209.465 313.023C209.424 312.904 209.415 312.777 209.44 312.654C209.465 312.531 209.522 312.416 209.606 312.321C212.278 309.337 216.935 310.966 216.981 310.982L217.005 310.991L217.019 311.01C222.241 318.032 220.31 340.838 219.87 345.339C219.854 345.508 219.777 345.666 219.653 345.785C219.529 345.904 219.367 345.976 219.194 345.988L216.106 346.222C216.087 346.223 216.068 346.224 216.049 346.224Z" fill="#2F2E41"/>
<path d="M225.2 299.367C225.18 299.454 225.167 299.542 225.161 299.63L218.133 303.606L216.425 302.641L214.604 304.979L217.459 306.974C217.689 307.135 217.967 307.219 218.25 307.212C218.533 307.205 218.807 307.109 219.029 306.937L226.276 301.331C226.603 301.45 226.959 301.468 227.297 301.383C227.635 301.299 227.938 301.115 228.167 300.857C228.396 300.599 228.54 300.279 228.578 299.939C228.617 299.599 228.55 299.256 228.385 298.955C228.22 298.654 227.965 298.409 227.655 298.253C227.344 298.097 226.993 298.038 226.647 298.082C226.301 298.127 225.978 298.274 225.719 298.504C225.461 298.733 225.28 299.034 225.2 299.367Z" fill="#A0616A"/>
<path d="M217.898 303.794L215.627 306.68C215.562 306.762 215.48 306.83 215.387 306.878C215.293 306.927 215.19 306.954 215.084 306.96C214.979 306.966 214.873 306.949 214.775 306.911C214.676 306.873 214.587 306.815 214.514 306.74L211.943 304.122C211.516 303.795 211.239 303.316 211.173 302.79C211.106 302.263 211.255 301.732 211.586 301.313C211.918 300.894 212.406 300.621 212.943 300.554C213.479 300.487 214.021 300.631 214.45 300.955L217.675 302.723C217.767 302.774 217.847 302.843 217.91 302.927C217.972 303.011 218.015 303.107 218.037 303.208C218.058 303.31 218.056 303.415 218.033 303.516C218.009 303.617 217.963 303.712 217.898 303.794H217.898Z" fill="#2E8CCB"/>
<path d="M209.095 308.809L205.436 308.161C205.332 308.143 205.233 308.102 205.146 308.043C205.059 307.984 204.987 307.907 204.933 307.818C204.879 307.728 204.846 307.629 204.835 307.525C204.824 307.422 204.836 307.318 204.869 307.22L206.056 303.776C206.155 303.254 206.461 302.792 206.907 302.492C207.353 302.191 207.902 302.076 208.435 302.172C208.967 302.267 209.439 302.566 209.747 303.003C210.055 303.439 210.174 303.978 210.077 304.5L209.962 308.121C209.958 308.225 209.932 308.327 209.885 308.42C209.838 308.513 209.771 308.594 209.689 308.66C209.607 308.725 209.511 308.772 209.408 308.798C209.306 308.824 209.199 308.827 209.095 308.809Z" fill="#03256C"/>
<path d="M210.215 293.884C211.248 294.578 212.604 295.29 213.659 294.552C213.989 294.306 214.228 293.961 214.342 293.57C214.455 293.179 214.437 292.762 214.289 292.382C213.784 290.966 212.396 290.343 211.069 289.865C209.383 289.118 207.508 288.884 205.685 289.194C203.904 289.639 202.33 291.33 202.652 293.104C202.91 294.531 204.283 295.718 204.088 297.154C203.892 298.6 202.234 299.361 200.77 299.619C199.306 299.878 197.668 299.961 196.616 300.992C195.274 302.307 195.609 304.658 196.872 306.046C198.252 307.342 200.001 308.195 201.887 308.492C204.333 309.059 206.979 309.357 209.303 308.416C211.627 307.475 213.435 304.942 212.762 302.567C212.407 301.583 211.864 300.675 211.16 299.891C210.457 299.107 209.929 298.187 209.611 297.19C209.497 296.769 209.484 296.328 209.574 295.902C209.664 295.475 209.853 295.075 210.128 294.733C210.232 294.622 210.297 294.482 210.314 294.333C210.332 294.183 210.301 294.032 210.225 293.901L210.215 293.884Z" fill="#2F2E41"/>
</g>
<defs>
<clipPath id="clip0">
<rect width="674" height="353" fill="white"/>
</clipPath>
</defs>
</svg>
